<svg width="140.3" height="350.7" xmlns="http://www.w3.org/2000/svg">
    <defs>
        <style>.a{fill:#efeeff}</style>
    </defs>
    <g>
        <title>background</title>
        <rect fill="none" id="canvas_background" height="602" width="802" y="-1" x="-1"/>
    </g>
    <g>
        <title>Layer 1</title>
        <path id="svg_1" class="a"
              d="m-54,69s54,-69 100.5,358.3s519.5,19.2 519.5,19.2l-24.2,180.4l40.6,131.5l201,-62.8l0,-626.6l-837.4,0z"/>
        <path id="svg_2" class="a"
              d="m439.4,310.9c-45.1,-1.6 -88,-16.1 -129,-32s-81.5,-33.6 -125.5,-42c-28.3,-5.4 -60.7,-6.2 -83.4,9c-22,14.6 -29,39.7 -32.9,63.1c-2.8,17.6 -4.5,36.1 3.3,52.6c5.5,11.4 15.2,21 21.9,32c23.3,38 6.8,85 -18.5,122.2c-11.8,17.5 -25.5,34.1 -34.7,52.7s-13.3,39.8 -5.3,58.8c7.9,18.7 26.7,32.9 47.2,42.7c41.6,20.1 90.5,26 138.3,29.2c105.7,7.2 212,4 318,1a934,934 0 0 0 117.1,-8.4c21.4,-3.4 43.5,-8.8 59.1,-21.6a49.5,49.5 0 0 0 11.4,-64.7c-22.2,-34.4 -83.5,-43 -99,-80c-8.6,-20.3 0.2,-43 12.6,-61.9c26.6,-40.5 71.2,-76 73.6,-122.3c1.6,-31.8 -19.9,-63.6 -53,-78.6c-34.8,-15.7 -83,-13.7 -108.6,12.3c-26.5,26.8 -72.9,37.2 -112.6,35.8l0,0.1z"/>
        <path d="m66.972534,170.033859c0,1 0,1 0,4c0,3 0,7 0,13c0,8 0,16 0,23c0,5 -0.499237,11.958466 -1,21c-0.497704,8.986221 -2,21 -2,28.999985c0,5 1.496223,8.907776 2,13c0.366547,2.977509 0,4 0,7c0,3 1,6 2,9l0,1l0,2"
              id="svg_3" fill-opacity="null" stroke-opacity="null" stroke-dasharray="null" stroke-width="null"
              stroke="null" fill="none"/>
        <path d="m28.972532,320.033844c0,1 2.634874,7.275757 8.000002,14c7.510143,9.412628 15.669327,18.63382 22,31c4.488045,8.766846 8.993996,17.83551 10,27c0.327347,2.982086 0.689262,6.080261 0,9c-0.513741,2.176239 -3.116898,6.967651 -5,14c-1.066502,3.982788 -4,11 -7,18c-3,7 -5.759552,15.847809 -8,29c-1.520657,8.926788 -3,19 -3,32c0,14 0,26.000031 0,34.000031c0,7 -0.756432,12.072205 0,16c1.018375,5.288025 3.713181,8.792908 6,18c1.466263,5.903381 2,9 3,12l0,1l0,1l0,0"
              id="svg_4" fill-opacity="null" stroke-opacity="null" stroke-dasharray="null" stroke-width="null"
              stroke="null" fill="none"/>
        <path d="m-9.027467,63.033852c0,1 -0.513336,2.067001 0,4c2.069323,7.792168 8.53562,13.725517 15,27c7.646252,15.701431 20.999892,45.179176 27.000001,73.000008c6.146473,28.499481 7.184044,53.792099 11,79c4.363708,28.82634 4.499683,45.973221 5,59.999985c0.534691,14.990479 0.463402,30.00827 0,43c-0.500317,14.026764 -2.664719,32.042816 -5,49c-2.624256,19.055542 -4,39 -4,71c0,57.000031 0,89.000031 0,111.000031l1,20l11,10"
              id="svg_5" fill-opacity="null" stroke-opacity="null" stroke-dasharray="null" stroke-width="null"
              stroke="null" fill="none"/>
    </g>
</svg>